<?xml version="1.0" encoding="UTF-8"?>
<svg version="1.1" xmlns="http://www.w3.org/2000/svg" width="3825" height="1650">
<path d="M0 0 C2.10308015 -0.00211025 4.20615957 -0.00509665 6.30923738 -0.00887535 C12.1025272 -0.01673723 17.8957507 -0.01213551 23.68903963 -0.00553953 C30.00985152 -0.00055464 36.33065305 -0.00719337 42.65146333 -0.0123432 C53.77689993 -0.01979633 64.90231699 -0.01984596 76.02775469 -0.01495371 C88.02876016 -0.00971608 100.02975422 -0.00887831 112.03076014 -0.01331063 C112.79175823 -0.01358892 113.55275632 -0.0138672 114.33681496 -0.01415392 C118.22239959 -0.01559395 122.10798418 -0.01710304 125.99356877 -0.01863506 C154.37674056 -0.02967217 182.75990621 -0.03080169 211.14307952 -0.02693671 C239.91575199 -0.02304721 268.68841955 -0.02349395 297.46109176 -0.02924651 C298.36818593 -0.02942576 299.27528009 -0.02960501 300.20986197 -0.02978969 C308.52269073 -0.03143253 316.83551949 -0.03311812 325.14834824 -0.03485533 C345.99475503 -0.03920512 366.8411619 -0.04284042 387.6875689 -0.04598767 C388.64288757 -0.04613212 389.59820623 -0.04627657 390.58247394 -0.0464254 C437.68997072 -0.05347823 484.79746705 -0.05283502 531.90496421 -0.0513069 C532.9261683 -0.05127383 533.94737239 -0.05124076 534.99952207 -0.05120668 C539.13386453 -0.05107237 543.26820699 -0.05093722 547.40254945 -0.05080131 C558.82276031 -0.05042615 570.24297116 -0.05006847 581.66318202 -0.04973358 C582.69423958 -0.04970286 583.72529714 -0.04967215 584.78759887 -0.0496405 C631.50872668 -0.04826686 678.22985398 -0.05079602 724.95098166 -0.05425965 C731.19988676 -0.05472288 737.44879186 -0.05517474 743.69769697 -0.05562377 C744.73066725 -0.05569805 745.76363754 -0.05577233 746.82790996 -0.05584886 C748.91618785 -0.05599901 751.00446575 -0.05614913 753.09274364 -0.05629922 C758.32164511 -0.05667529 763.55054657 -0.05705275 768.77944803 -0.0574303 C769.81618368 -0.05750511 770.85291933 -0.05757991 771.92107121 -0.05765698 C777.16366142 -0.05803545 782.40625163 -0.05841537 787.64884185 -0.05879792 C836.57675667 -0.06236617 885.50467152 -0.06523047 934.43258643 -0.06739062 C936.03172174 -0.06746148 936.03172174 -0.06746148 937.66316281 -0.06753377 C1005.60316529 -0.07052881 1073.54316737 -0.07040323 1141.48316987 -0.06796985 C1144.82424793 -0.06785026 1148.16532599 -0.06773188 1151.50640405 -0.06761376 C1176.10025221 -0.06674232 1200.69410036 -0.06581172 1225.28794852 -0.06486312 C1227.53091288 -0.06477674 1229.77387725 -0.06469036 1232.01684161 -0.064604 C1234.26072576 -0.06451757 1236.50460991 -0.06443112 1238.74849406 -0.06434468 C1239.85954256 -0.06430189 1240.97059106 -0.06425909 1242.1153077 -0.06421501 C1247.72919441 -0.06399862 1253.34308112 -0.06378118 1258.95696783 -0.06356178 C1364.99670961 -0.05942288 1471.03644941 -0.05834655 1577.07619071 -0.07072181 C1578.19267327 -0.07085209 1579.30915583 -0.07098237 1580.4594712 -0.0711166 C1614.2211007 -0.0750685 1647.98273015 -0.07942806 1681.74435958 -0.08388776 C1718.66095063 -0.08876377 1755.57754167 -0.09359765 1792.49413276 -0.09816951 C1793.59622815 -0.09830628 1794.69832355 -0.09844305 1795.83381578 -0.09858396 C1864.8470199 -0.10713752 1933.86022345 -0.11204223 2002.87342811 -0.11287707 C2003.93919319 -0.11289034 2005.00495827 -0.11290361 2006.10301926 -0.11291729 C2052.90704946 -0.11349259 2099.71107962 -0.11320788 2146.51510981 -0.11199857 C2164.30199937 -0.11153936 2182.08888892 -0.11114712 2199.87577848 -0.11078781 C2204.03965983 -0.11070355 2208.20354117 -0.11061428 2212.36742252 -0.11052099 C2260.12918336 -0.10946522 2307.89094273 -0.11054735 2355.65270305 -0.11819595 C2356.68295171 -0.11836059 2357.71320037 -0.11852524 2358.77466869 -0.11869487 C2375.34782611 -0.12135321 2391.9209835 -0.1241723 2408.49414089 -0.12699889 C2455.53486961 -0.13501183 2502.57559619 -0.14136359 2549.61632562 -0.13693005 C2550.57057561 -0.13684065 2551.52482559 -0.13675125 2552.50799225 -0.13665914 C2573.32531565 -0.13467574 2594.14263884 -0.13184045 2614.959962 -0.12816862 C2623.26213835 -0.12671638 2631.56431471 -0.12537216 2639.86649108 -0.12406081 C2641.22493904 -0.12384171 2641.22493904 -0.12384171 2642.61083039 -0.12361818 C2671.34565251 -0.11903434 2700.08046325 -0.12365894 2728.81528375 -0.1335954 C2757.10536594 -0.14333851 2785.39543163 -0.14398058 2813.68551321 -0.1313401 C2817.55956952 -0.1296103 2821.43362586 -0.127985 2825.30768225 -0.12642225 C2826.0661095 -0.12611224 2826.82453675 -0.12580224 2827.60594664 -0.12548284 C2839.56666874 -0.12086668 2851.52736414 -0.12625612 2863.48808235 -0.13592421 C2875.18909371 -0.1451775 2886.89005472 -0.14353986 2898.59106423 -0.13099352 C2904.82080608 -0.12461976 2911.05044955 -0.12295417 2917.28018606 -0.13456073 C2922.93491108 -0.14500856 2928.58945382 -0.14160142 2934.24416875 -0.12725233 C2936.26973364 -0.12451181 2938.29531327 -0.12674989 2940.32086443 -0.13469746 C2971.84898319 -0.24996351 2997.55755721 8.83374115 3020.18049979 30.94325525 C3043.02199515 54.90067099 3047.74797051 83.93007404 3047.68056083 115.5565365 C3047.68286772 117.91802836 3047.68604577 120.2795195 3047.69001532 122.64100915 C3047.69746987 128.42817224 3047.6956889 134.21528006 3047.68991379 140.00244385 C3047.68351179 146.94092275 3047.68877553 153.87938087 3047.69433761 160.81785876 C3047.7048491 174.4107199 3047.70396429 188.0035622 3047.69817979 201.59642512 C3047.69314262 213.49198509 3047.69183809 225.38753817 3047.69422507 237.283099 C3047.69437784 238.07309525 3047.69453061 238.86309151 3047.69468801 239.67702705 C3047.69531072 242.88412514 3047.69594752 246.09122322 3047.69660754 249.29832131 C3047.70272135 279.36463084 3047.69718526 309.43092839 3047.68641375 339.49723607 C3047.67692301 366.19148846 3047.67777228 392.88572177 3047.68733573 419.579974 C3047.69805207 449.59236711 3047.70228771 479.60474964 3047.6961112 509.61714441 C3047.6954698 512.81829593 3047.69484411 516.01944746 3047.69422507 519.220599 C3047.69406692 520.00876614 3047.69390876 520.79693329 3047.69374582 521.60898429 C3047.69147379 533.49515043 3047.69412597 545.38130891 3047.69918418 557.267474 C3047.70490877 570.78670249 3047.70346008 584.30590925 3047.69262269 597.82513505 C3047.68727668 604.72098597 3047.6850395 611.61680163 3047.691921 618.51265222 C3047.6978938 624.82896346 3047.69458327 631.14520024 3047.68396589 637.46150476 C3047.68173753 639.7426116 3047.68285545 642.02372477 3047.68771747 644.30482751 C3047.75310828 677.54170364 3040.35466571 704.83963737 3016.92659354 729.126849 C2999.93895435 745.49933691 2976.61115798 756.44643555 2952.83401973 756.37841083 C2951.97590304 756.37994476 2951.11778636 756.38147868 2950.23366613 756.38305908 C2947.34277913 756.38699775 2944.45194392 756.38379087 2941.56105655 756.38065016 C2939.46163992 756.38201823 2937.36222353 756.38382419 2935.26280761 756.38602898 C2929.45170981 756.39084575 2923.64062747 756.38938881 2917.82952879 756.38697128 C2911.49978063 756.38543436 2905.17003597 756.38968125 2898.84028897 756.39319804 C2887.68975204 756.39858308 2876.53921944 756.40024662 2865.38868131 756.3994473 C2853.35618656 756.39860329 2841.32369495 756.39993583 2829.29120079 756.40389701 C2828.14812811 756.40427111 2828.14812811 756.40427111 2826.98196306 756.40465277 C2823.87494819 756.40567692 2820.76793334 756.40671676 2817.66091849 756.40777639 C2788.43212789 756.41774359 2759.20333833 756.42275052 2729.97454619 756.42488748 C2701.13323876 756.42700705 2672.29193284 756.4312635 2643.45062613 756.4381302 C2641.61311362 756.43856529 2639.7756011 756.43900025 2637.93808858 756.43943509 C2630.52945617 756.44119174 2623.12082375 756.44296204 2615.71219134 756.44474811 C2526.88128416 756.46613375 2438.05037668 756.47702472 2349.21946751 756.48591035 C2319.03555888 756.48893327 2288.85165032 756.49239383 2258.66774178 756.49619156 C2257.12678838 756.49638523 2257.12678838 756.49638523 2255.55470462 756.49658282 C2246.20370723 756.49775829 2236.85270984 756.49893746 2227.50171246 756.50012008 C2121.8444971 756.51347487 2016.18728151 756.52586927 1800.92244797 756.54087912 C1790.86935779 756.54140358 1780.81626762 756.54194089 1770.76317745 756.54247758 C1767.40585546 756.54265679 1764.04853347 756.54283575 1760.69121148 756.54301467 C1739.36277699 756.54415176 1718.0343425 756.54529782 1696.70590802 756.54646287 C1691.07872182 756.54677018 1685.45153563 756.54707611 1679.82434943 756.54737877 C1573.54181961 756.5530988 1467.25929219 756.56234262 1360.97676444 756.58479577 C1359.29842793 756.58515011 1359.29842793 756.58515011 1357.58618562 756.58551162 C1321.5021027 756.59313952 1285.41801986 756.60118834 1249.33393704 756.60929688 C1214.58894717 756.61710438 1179.84395728 756.62482777 1145.09896731 756.63218671 C1143.99452936 756.6324208 1142.89009141 756.63265489 1141.75218564 756.63289607 C1072.5906452 756.6475314 1003.42910541 756.65733405 934.26756358 756.66206151 C933.19947582 756.66213511 932.13138805 756.6622087 931.03093399 756.66228453 C884.1243525 756.66551041 837.21777101 756.66767889 790.31118941 756.66866753 C771.4408185 756.66906835 752.5704476 756.66960174 733.70007669 756.67019896 C730.57123715 756.67029643 727.4423976 756.67038881 724.31355806 756.67048033 C676.44605105 756.67190929 628.57854711 756.67648215 580.71104193 756.69035631 C579.67851463 756.69065538 578.64598733 756.69095446 577.58217133 756.69126259 C560.97227317 756.69609123 544.36237508 756.70117312 527.752477 756.70628859 C480.60511875 756.72080384 433.4577641 756.73332588 386.31040323 756.73157042 C385.35392993 756.73153566 384.39745664 756.73150089 383.41199931 756.73146508 C362.54579077 756.73066534 341.67958249 756.72875711 320.81337416 756.72576254 C312.49157367 756.72458534 304.16977315 756.72355567 295.84797263 756.7225731 C294.48631307 756.72240642 294.48631307 756.72240642 293.09714522 756.72223636 C264.2968527 756.71878113 235.49658157 756.72763334 206.69629374 756.74359302 C178.34029129 756.75925567 149.98431693 756.76280118 121.62831274 756.74866894 C117.74471995 756.74673528 113.86112711 756.74494156 109.97753421 756.74323186 C108.83709732 756.74272174 108.83709732 756.74272174 107.67362131 756.74220133 C95.68614924 756.73720403 83.69872594 756.74555729 71.71126266 756.75963096 C59.98241315 756.77312839 48.25365155 756.77209205 36.52480245 756.75652294 C30.28086519 756.74864322 24.03710316 756.74703012 17.79317778 756.76314197 C12.12440877 756.7776534 6.45596122 756.77365121 0.78720677 756.75509032 C-1.24229772 756.75164077 -3.27182776 756.75481712 -5.30130638 756.7656307 C-34.99411891 756.91324047 -59.98268777 747.15320056 -81.63590646 726.564349 C-105.04086678 702.53574553 -109.89258657 673.09225034 -109.83410287 640.974078 C-109.83712667 638.61543666 -109.8410173 636.2567963 -109.84569544 633.89815766 C-109.85488178 628.11791668 -109.85483587 622.33772824 -109.85078382 616.5574826 C-109.84644146 609.6270914 -109.8537303 602.69672424 -109.8612751 595.76633752 C-109.87648614 581.39996258 -109.87822314 567.03360532 -109.87575207 552.66722402 C-109.87391679 541.57026488 -109.87568394 530.47331151 -109.87997651 519.37635309 C-109.88057892 517.77997656 -109.88118012 516.18360004 -109.88178011 514.58722351 C-109.8826874 512.18139725 -109.88359607 509.77557098 -109.88451247 507.36974472 C-109.8929377 485.01183346 -109.89728067 462.65392437 -109.89310575 440.29601175 C-109.89294937 439.45379383 -109.89279299 438.61157592 -109.89263188 437.74383625 C-109.89182614 433.47550496 -109.89098037 429.20717367 -109.89011858 424.93884239 C-109.88994749 424.09119521 -109.8897764 423.24354803 -109.88960013 422.37021457 C-109.88925347 420.65606753 -109.88890494 418.94192048 -109.88855454 417.22777344 C-109.88319829 390.56032981 -109.89112679 363.89291926 -109.9095881 337.22548181 C-109.93032371 307.23795276 -109.94102783 277.25044419 -109.93701261 247.26290756 C-109.93661729 244.0628077 -109.93625574 240.86270784 -109.93591523 237.66260797 C-109.9358245 236.87471051 -109.93573377 236.08681306 -109.93564029 235.27503992 C-109.93447639 223.40306604 -109.94110675 211.53111292 -109.95172715 199.65914422 C-109.96379985 186.15027067 -109.96531432 172.6414427 -109.95293698 159.13256845 C-109.94690743 152.24430576 -109.94553813 145.35612417 -109.95793939 138.46786767 C-109.96881625 132.15378449 -109.96567319 125.83986442 -109.9516777 119.52578881 C-109.94903576 117.24999368 -109.95138135 114.9741857 -109.95941357 112.69840321 C-110.05220563 84.42995102 -105.56611653 58.44333129 -86.57340646 36.251849 C-85.93016427 35.46423181 -85.28692208 34.67661462 -84.62418771 33.86513025 C-62.66135262 8.00500834 -32.74717989 -0.08188237 0 0 Z " fill="#DEEEFE" transform="translate(443.573406457901,427.7481510043144)"/>
<path d="M0 0 C34.32 0 68.64 0 104 0 C104 190.08 104 380.16 104 576 C69.68 576 35.36 576 0 576 C-0.33 562.14 -0.66 548.28 -1 534 C-4.3 536.97 -7.6 539.94 -11 543 C-41.16843138 567.77292346 -77.41613272 585.81229573 -117.1796875 586.23828125 C-117.94154358 586.2480751 -118.70339966 586.25786896 -119.48834229 586.26795959 C-150.59113256 586.5848561 -179.98344101 583.47749253 -208 569 C-208.62745117 568.68272949 -209.25490234 568.36545898 -209.90136719 568.03857422 C-229.44998931 558.13597841 -246.23822664 545.11909147 -262 530 C-262.82371094 529.21753906 -263.64742187 528.43507813 -264.49609375 527.62890625 C-307.04436106 486.26048691 -324.83143662 428.26506157 -325.96826172 370.26171875 C-326.29312195 336.87608311 -321.74101271 301.64491836 -308 271 C-307.69465332 270.31164062 -307.38930664 269.62328125 -307.07470703 268.9140625 C-297.63438371 247.77505279 -285.73949157 229.26457256 -270.05078125 212.23828125 C-268.12555454 210.13703381 -266.27921697 207.98680694 -264.4375 205.8125 C-260.93354188 201.80454791 -257.07687172 198.41140297 -253 195 C-252.12601563 194.23816406 -251.25203125 193.47632813 -250.3515625 192.69140625 C-211.67766429 159.46088513 -164.13855945 147.05205988 -113.76757812 150.20214844 C-92.47168514 152.03800128 -72.28560819 157.88157137 -53 167 C-52.3395166 167.31163086 -51.6790332 167.62326172 -50.99853516 167.94433594 C-35.08870532 175.60537502 -21.193038 186.37310329 -8 198 C-4.04 201.465 -4.04 201.465 0 205 C0 137.35 0 69.7 0 0 Z " fill="#001028" transform="translate(1742,486)"/>
<path d="M0 0 C1.21913086 0.00273422 1.21913086 0.00273422 2.46289062 0.00552368 C23.95291243 0.08637462 44.59447182 2.46802917 65.3125 8.3125 C66.13041016 8.53856934 66.94832031 8.76463867 67.79101562 8.99755859 C90.61332111 15.46868191 113.06700077 26.48082903 132.3125 40.3125 C133.36695313 41.05757812 134.42140625 41.80265625 135.5078125 42.5703125 C165.23563845 64.22583062 187.61629924 91.9505837 203.5625 124.9375 C204.05806396 125.96214355 204.55362793 126.98678711 205.06420898 128.04248047 C210.81042968 140.15352258 215.04868666 152.10491283 218 165.1875 C218.44182617 167.05728516 218.44182617 167.05728516 218.89257812 168.96484375 C221.55339895 180.52895044 223.30046032 192.14398368 223.9375 204 C224.04964844 205.95486328 224.04964844 205.95486328 224.1640625 207.94921875 C226.550792 266.51056724 206.43591674 324.14656865 166.8984375 367.59765625 C157.76097337 377.47782067 148.23810982 386.43628937 137.3125 394.3125 C136.65330566 394.78896973 135.99411133 395.26543945 135.31494141 395.75634766 C100.7893405 420.39429704 58.64203759 436.28063348 15.921875 436.515625 C14.63314232 436.52601051 14.63314232 436.52601051 13.31837463 436.53660583 C10.56636926 436.55376695 7.81455633 436.56019095 5.0625 436.5625 C3.65404312 436.56450912 3.65404312 436.56450912 2.21713257 436.56655884 C-11.65057656 436.56226309 -25.04437706 435.96532946 -38.6875 433.3125 C-40.0098592 433.09040492 -41.33276197 432.87151613 -42.65625 432.65625 C-58.4769604 429.86435993 -73.41266792 424.60744814 -87.6875 417.3125 C-88.44595215 416.9304541 -89.2044043 416.5484082 -89.98583984 416.15478516 C-109.94372151 406.06966406 -127.57263487 393.82235419 -143.6875 378.3125 C-144.31591797 377.71131348 -144.94433594 377.11012695 -145.59179688 376.49072266 C-154.76886814 367.66678652 -163.27629259 358.6768632 -170.6875 348.3125 C-171.16638672 347.64557129 -171.64527344 346.97864258 -172.13867188 346.29150391 C-205.90023794 298.73335509 -218.2087023 239.60426091 -209.18261719 182.09570312 C-207.90524369 174.78444961 -206.36184497 167.54222932 -204.6875 160.3125 C-204.40350342 159.06364014 -204.40350342 159.06364014 -204.11376953 157.78955078 C-201.19131228 145.25244381 -196.34428548 133.84831854 -190.6875 122.3125 C-190.32108398 121.56049316 -189.95466797 120.80848633 -189.57714844 120.03369141 C-182.09774876 104.85609772 -172.76187413 91.10910953 -161.6875 78.3125 C-161.00558594 77.51972656 -160.32367187 76.72695313 -159.62109375 75.91015625 C-149.87104056 64.83136652 -139.46251023 54.23703247 -127.6875 45.3125 C-127.0486084 44.82426758 -126.4097168 44.33603516 -125.75146484 43.83300781 C-114.91699883 35.60271615 -103.80662746 28.49441411 -91.6875 22.3125 C-90.9126123 21.91546875 -90.13772461 21.5184375 -89.33935547 21.109375 C-71.00495971 11.8196462 -52.88285984 6.46343693 -32.66235352 2.84838867 C-30.73169618 2.50060099 -28.80460611 2.13214035 -26.88256836 1.73950195 C-17.92353711 0.01498638 -9.08841506 -0.04221736 0 0 Z " fill="#001028" transform="translate(1165.6875,635.6875)"/>
<path d="M0 0 C34.32 0 68.64 0 104 0 C104.33 50.16 104.66 100.32 105 152 C229.74 152.33 354.48 152.66 483 153 C479.03070785 160.93858429 475.0190316 168.58684044 470.5 176.1875 C465.56170962 184.56890542 460.72711088 192.99772883 456 201.5 C451.42465427 209.722203 446.76417107 217.88575106 442 226 C436.58549301 235.224351 431.31369306 244.52014472 426.10498047 253.86206055 C421.01375391 262.99137742 415.83957525 272.07094915 410.63964844 281.13867188 C407.84425074 286.01688227 405.05629125 290.89934254 402.26751709 295.78134155 C400.558845 298.77236328 398.84971026 301.76312061 397.140625 304.75390625 C396.44856552 305.96500526 395.75650823 307.17610552 395.06445312 308.38720703 C388.37630208 320.09147135 381.68815104 331.79573568 375 343.5 C374.50502266 344.36621223 374.50502266 344.36621223 374.00004578 345.24992371 C373.3332309 346.41684719 372.66641165 347.58376817 371.99958801 348.75068665 C370.33515299 351.66340351 368.67079361 354.57616355 367.0065918 357.48901367 C363.98004296 362.7862036 360.95289676 368.08304817 357.92300415 373.37832642 C351.42324839 384.73790372 344.93070108 396.10111844 338.5 407.5 C332.08890647 418.86412576 325.61632659 430.192775 319.13591003 441.5174408 C316.59816152 445.95270413 314.06407142 450.39004644 311.53125 454.828125 C310.43676512 456.74542821 309.34224181 458.66270948 308.24771118 460.57998657 C307.54797383 461.80594187 306.84840568 463.03199376 306.14901733 464.25814819 C305.17666855 465.96274912 304.20358329 467.66692987 303.23046875 469.37109375 C302.67770264 470.33974365 302.12493652 471.30839355 301.55541992 472.30639648 C300.06504348 474.88736074 298.53338712 477.4443548 297 480 C354.75 480 412.5 480 472 480 C472 509.04 472 538.08 472 568 C361.45 568 250.9 568 137 568 C138.51534382 563.45396854 139.86559093 560.18291035 142.203125 556.1328125 C142.84652832 555.01237549 143.48993164 553.89193848 144.15283203 552.73754883 C144.85177118 551.53329807 145.55083019 550.32911686 146.25 549.125 C146.9742266 547.86833099 147.69801612 546.61140999 148.42138672 545.35424805 C153.52175234 536.50221801 158.68287464 527.68556545 163.84863281 518.87158203 C168.58953761 510.7598751 173.17884404 502.5683105 177.74829102 494.35913086 C182.33568822 486.13718735 187.05604656 477.99933286 191.8203125 469.87890625 C195.77894068 463.12178477 199.6625232 456.32658338 203.5 449.5 C207.90510575 441.66364729 212.38842997 433.87863713 216.9375 426.125 C221.72109579 417.96849187 226.40113227 409.7620351 231 401.5 C236.09837113 392.34280035 241.31307969 383.26306978 246.61376953 374.22167969 C251.08278735 366.5920119 255.49361631 358.93022514 259.875 351.25 C260.37504547 350.3735231 260.37504547 350.3735231 260.88519287 349.4793396 C262.5800349 346.5080802 264.27407984 343.53636728 265.96777344 340.56445312 C268.97480863 335.28888953 271.98877937 330.0172894 275.00228882 324.74542236 C276.66707936 321.83299369 278.33162965 318.92042775 279.99609375 316.0078125 C280.32589737 315.43070526 280.65570099 314.85359802 280.99549866 314.25900269 C283.00657384 310.73956741 285.01649261 307.21947441 287.02554321 303.69888306 C294.57797252 290.46438243 302.15093003 277.24217995 309.77758789 264.05029297 C312.93848324 258.58156319 316.08664676 253.10586067 319.21875 247.62060547 C319.58452148 246.98025864 319.95029297 246.3399118 320.32714844 245.68016052 C321.218208 244.12016929 322.10911957 242.56009353 323 241 C303.58323184 241.10913782 284.16648959 241.22216119 264.74976826 241.33933926 C255.72633565 241.39371209 246.70289954 241.44699207 237.67944336 241.49731445 C229.77880394 241.54137827 221.87818256 241.58788291 213.97757214 241.63687855 C209.82681958 241.66254577 205.67606829 241.68729409 201.52529335 241.70907402 C169.34324588 241.88222032 137.18215205 242.47242374 105 243 C104.505 403.875 104.505 403.875 104 568 C69.68 568 35.36 568 0 568 C0 460.42 0 352.84 0 242 C-17.49 242 -34.98 242 -53 242 C-53 212.63 -53 183.26 -53 153 C-35.51 153 -18.02 153 0 153 C0 102.51 0 52.02 0 0 Z " fill="#001028" transform="translate(2954,494)"/>
<path d="M0 0 C1.59822257 1.46595588 3.21468443 2.91214692 4.84375 4.34375 C10.09083572 8.96244222 14.76608453 13.7393444 19.265625 19.078125 C20.74040613 20.74867354 22.21960331 22.41533361 23.703125 24.078125 C24.38246094 24.84125 25.06179688 25.604375 25.76171875 26.390625 C26.25800781 26.9475 26.75429688 27.504375 27.265625 28.078125 C24.65996985 31.41662066 22.06376831 34.34348453 18.828125 37.078125 C14.75593434 40.53987341 11.0195329 44.28005931 7.265625 48.078125 C3.09946389 52.28851403 -1.08725876 56.35056224 -5.61328125 60.17578125 C-8.60576721 62.85964987 -11.40870759 65.72046589 -14.234375 68.578125 C-17.62443881 72.00657051 -20.98631457 75.40073199 -24.671875 78.515625 C-29.32836777 82.45420025 -33.54676679 86.84102882 -37.81225586 91.19311523 C-40.64579261 94.06775783 -43.3861146 96.79069958 -46.734375 99.078125 C-50.44705594 97.53685149 -52.71553198 95.26969266 -55.484375 92.390625 C-59.74130823 88.05313845 -64.1043761 84.00833496 -68.734375 80.078125 C-69.64316406 79.28019531 -70.55195312 78.48226562 -71.48828125 77.66015625 C-93.06867479 58.83750765 -118.22820046 42.26925387 -145.55078125 33.18359375 C-148.734375 32.078125 -148.734375 32.078125 -151.94921875 30.62890625 C-193.9375345 12.34320575 -250.19281732 16.59523094 -291.9387207 32.79052734 C-337.83808147 51.35185812 -375.19930154 88.31710646 -394.87304688 133.70507812 C-400.51394588 147.45037034 -404.12842962 161.47368246 -406.734375 176.078125 C-406.86569824 176.77550781 -406.99702148 177.47289062 -407.13232422 178.19140625 C-413.06487966 210.87454479 -409.37655907 249.1001457 -397.734375 280.078125 C-397.30382812 281.23441406 -396.87328125 282.39070313 -396.4296875 283.58203125 C-388.16340645 305.2652982 -376.54622863 325.01343385 -360.734375 342.078125 C-360.21149902 342.6448291 -359.68862305 343.2115332 -359.14990234 343.79541016 C-333.68222438 371.06770658 -299.36872493 388.71317933 -263.171875 396.828125 C-262.28693359 397.02712402 -261.40199219 397.22612305 -260.49023438 397.43115234 C-246.27949766 400.42816688 -232.09684499 401.46579062 -217.609375 401.390625 C-216.85224213 401.38846985 -216.09510925 401.3863147 -215.31503296 401.38409424 C-161.86322 401.14165061 -117.07077483 381.06054905 -76.734375 347.078125 C-76.18539551 346.61937988 -75.63641602 346.16063477 -75.07080078 345.68798828 C-68.00700262 339.77778143 -61.21128218 333.77852854 -54.8203125 327.13671875 C-52.8947167 325.23636484 -50.93903014 323.63934007 -48.734375 322.078125 C-45.83216172 323.39083414 -43.76725208 324.79711482 -41.52734375 327.0546875 C-40.94017578 327.64378906 -40.35300781 328.23289062 -39.74804688 328.83984375 C-39.14541016 329.45472656 -38.54277344 330.06960938 -37.921875 330.703125 C-37.33083984 331.29480469 -36.73980469 331.88648438 -36.13085938 332.49609375 C-33.06901816 335.58798575 -30.12608676 338.74277717 -27.28515625 342.0390625 C-23.63305618 346.26092493 -19.71787187 350.17094033 -15.734375 354.078125 C-11.12634545 358.59787812 -6.72419703 363.18744727 -2.51171875 368.078125 C0.58949085 371.56783778 3.93396632 374.8102912 7.265625 378.078125 C21.52468442 392.06402236 21.52468442 392.06402236 24.265625 398.078125 C9.76020671 412.7668983 9.76020671 412.7668983 2.265625 419.078125 C1.27691406 419.944375 0.28820312 420.810625 -0.73046875 421.703125 C-9.09760017 429.01934763 -17.76275985 435.86408265 -26.66015625 442.52294922 C-28.61917591 443.9917528 -30.56796355 445.47322075 -32.515625 446.95703125 C-41.20928995 453.5218243 -50.26696275 459.30767993 -59.64746094 464.84082031 C-61.50332401 465.94113782 -63.34320671 467.06308688 -65.1796875 468.1953125 C-113.14892515 496.97685509 -172.59124149 506.40448446 -227.734375 505.078125 C-228.6315625 505.06410645 -229.52875 505.05008789 -230.453125 505.03564453 C-267.43167586 504.41291546 -311.60975527 499.36355236 -344.88769531 482.01904297 C-347.76822126 480.55136092 -350.76219973 479.34763035 -353.734375 478.078125 C-356.33711694 476.84542617 -358.9116406 475.55958886 -361.484375 474.265625 C-362.4434375 473.78899414 -362.4434375 473.78899414 -363.421875 473.30273438 C-372.91996579 468.54434047 -382.090704 463.42799778 -390.921875 457.515625 C-391.82607178 456.91065186 -392.73026855 456.30567871 -393.66186523 455.68237305 C-402.09972028 449.95814767 -410.03330859 443.75456725 -417.734375 437.078125 C-418.24693848 436.6346875 -418.75950195 436.19125 -419.28759766 435.734375 C-422.86192533 432.61115295 -426.3169011 429.37074641 -429.734375 426.078125 C-430.42321777 425.41651367 -431.11206055 424.75490234 -431.82177734 424.07324219 C-441.06723993 415.14425507 -449.87309041 406.16472244 -457.4765625 395.78466797 C-458.76856795 394.03173356 -460.09182028 392.30622934 -461.421875 390.58203125 C-488.80519924 354.72280006 -505.44640603 311.41449157 -512.734375 267.078125 C-512.91774414 265.96840332 -513.10111328 264.85868164 -513.29003906 263.71533203 C-516.7698518 241.80899821 -517.30001558 220.26278653 -516.78186035 198.11505127 C-516.7391363 196.28236527 -516.70267162 194.4495359 -516.66699219 192.61669922 C-516.39780044 180.22785224 -514.98996168 168.25577285 -512.734375 156.078125 C-512.59660645 155.30210937 -512.45883789 154.52609375 -512.31689453 153.7265625 C-508.7414473 133.68752412 -503.90646293 113.76062691 -495.734375 95.078125 C-495.10440775 93.43418655 -494.47901343 91.78848439 -493.859375 90.140625 C-482.47187869 61.81189441 -465.21018829 34.94785413 -444.28515625 12.78125 C-441.85043753 10.20111929 -439.50884443 7.55910848 -437.171875 4.890625 C-395.49665415 -41.33365165 -332.72205654 -68.54772152 -272.734375 -79.921875 C-271.67750488 -80.12828613 -270.62063477 -80.33469727 -269.53173828 -80.54736328 C-174.12661929 -98.89046351 -70.75063355 -64.97507162 0 0 Z " fill="#000F27" transform="translate(904.734375,570.921875)"/>
<path d="M0 0 C0.81339844 0.70382812 1.62679687 1.40765625 2.46484375 2.1328125 C24.32053833 21.39896981 41.10276017 43.86280627 54 70 C54.47953125 70.96035156 54.9590625 71.92070313 55.453125 72.91015625 C74.31746925 112.4894608 75 155.99497053 75 199 C-35.22 199 -145.44 199 -259 199 C-255.22979217 216.14428355 -255.22979217 216.14428355 -249 232 C-248.24783203 233.56041016 -248.24783203 233.56041016 -247.48046875 235.15234375 C-234.26962143 261.1718346 -211.8084364 279.18268295 -184.5 288.8125 C-147.19759261 300.51135427 -106.88834493 296.17235993 -72.4375 278.1875 C-64.55634329 273.95296721 -57.2527562 269.13132647 -50.75 262.9453125 C-50.18877441 262.42686768 -49.62754883 261.90842285 -49.04931641 261.37426758 C-47.95830055 260.35659064 -46.8909763 259.31271486 -45.85302734 258.2409668 C-44.3359375 256.83203125 -44.3359375 256.83203125 -41 255 C-37.69373958 255.2788363 -34.97722163 256.59408979 -32 258 C-31.07670898 258.42095947 -30.15341797 258.84191895 -29.20214844 259.27563477 C-26.0095951 260.76834812 -22.84818697 262.31599536 -19.6875 263.875 C-17.2794247 265.04851694 -14.87075198 266.22069467 -12.4609375 267.390625 C-11.53807701 267.83935471 -11.53807701 267.83935471 -10.59657288 268.29714966 C8.4389736 277.53447472 27.75560971 286.20859405 47 295 C47 305.90992956 27.70144866 322.3516038 20.375 329.875 C15.52567854 334.59182634 10.32124273 338.82988325 5 343 C3.59427734 344.11375 3.59427734 344.11375 2.16015625 345.25 C-34.03367776 373.23342066 -80.23911972 386.98531126 -125.73046875 387.203125 C-126.71596207 387.21009399 -127.70145538 387.21706299 -128.71681213 387.22424316 C-131.87375213 387.24151942 -135.03051472 387.24796115 -138.1875 387.25 C-139.26447144 387.25100708 -140.34144287 387.25201416 -141.4510498 387.25305176 C-156.86505476 387.24328333 -171.81165282 386.84118213 -187 384 C-188.73038408 383.70653157 -190.46085382 383.4135678 -192.19140625 383.12109375 C-207.68188528 380.37403538 -222.91067951 376.08412613 -237 369 C-238.24171086 368.39615431 -239.48393846 367.79337053 -240.7265625 367.19140625 C-259.46937539 358.04801732 -276.35261084 347.55862725 -291.609375 333.23828125 C-293.77255502 331.21295094 -295.98762611 329.28765579 -298.25 327.375 C-302.2388961 323.89480927 -305.60585206 320.05198279 -309 316 C-310.10794922 314.74123047 -310.10794922 314.74123047 -311.23828125 313.45703125 C-352.30730132 265.96892989 -363.94411496 204.98615429 -359.56640625 143.859375 C-354.2588749 86.9419092 -326.99862139 34.72134217 -283.328125 -2.171875 C-279.97417775 -4.90621943 -276.51520207 -7.47780989 -273 -10 C-272.44231934 -10.40734375 -271.88463867 -10.8146875 -271.31005859 -11.234375 C-256.35002954 -22.06764726 -239.47911206 -31.02723809 -222 -37 C-221.19763916 -37.30413818 -220.39527832 -37.60827637 -219.56860352 -37.92163086 C-149.55812974 -64.30910148 -56.13352987 -49.19567787 0 0 Z " fill="#001028" transform="translate(2253,685)"/>
<path d="M0 0 C92.07 0 184.14 0 279 0 C279 34.32 279 68.64 279 104 C221.91 104 164.82 104 106 104 C106.33 137.33 106.66 170.66 107 205 C192.14 205.495 192.14 205.495 279 206 C279 239.66 279 273.32 279 308 C193.86 308.495 193.86 308.495 107 309 C106.67 392.16 106.34 475.32 106 561 C71.02 561 36.04 561 0 561 C0 375.87 0 190.74 0 0 Z " fill="#001028" transform="translate(2386,501)"/>
<path d="M0 0 C2.10308015 -0.00211025 4.20615957 -0.00509665 6.30923738 -0.00887535 C12.1025272 -0.01673723 17.8957507 -0.01213551 23.68903963 -0.00553953 C30.00985152 -0.00055464 36.33065305 -0.00719337 42.65146333 -0.0123432 C53.77689993 -0.01979633 64.90231699 -0.01984596 76.02775469 -0.01495371 C88.02876016 -0.00971608 100.02975422 -0.00887831 112.03076014 -0.01331063 C112.79175823 -0.01358892 113.55275632 -0.0138672 114.33681496 -0.01415392 C118.22239959 -0.01559395 122.10798418 -0.01710304 125.99356877 -0.01863506 C154.37674056 -0.02967217 182.75990621 -0.03080169 211.14307952 -0.02693671 C239.91575199 -0.02304721 268.68841955 -0.02349395 297.46109176 -0.02924651 C298.36818593 -0.02942576 299.27528009 -0.02960501 300.20986197 -0.02978969 C308.52269073 -0.03143253 316.83551949 -0.03311812 325.14834824 -0.03485533 C345.99475503 -0.03920512 366.8411619 -0.04284042 387.6875689 -0.04598767 C388.64288757 -0.04613212 389.59820623 -0.04627657 390.58247394 -0.0464254 C437.68997072 -0.05347823 484.79746705 -0.05283502 531.90496421 -0.0513069 C532.9261683 -0.05127383 533.94737239 -0.05124076 534.99952207 -0.05120668 C539.13386453 -0.05107237 543.26820699 -0.05093722 547.40254945 -0.05080131 C558.82276031 -0.05042615 570.24297116 -0.05006847 581.66318202 -0.04973358 C582.69423958 -0.04970286 583.72529714 -0.04967215 584.78759887 -0.0496405 C631.50872668 -0.04826686 678.22985398 -0.05079602 724.95098166 -0.05425965 C731.19988676 -0.05472288 737.44879186 -0.05517474 743.69769697 -0.05562377 C744.73066725 -0.05569805 745.76363754 -0.05577233 746.82790996 -0.05584886 C748.91618785 -0.05599901 751.00446575 -0.05614913 753.09274364 -0.05629922 C758.32164511 -0.05667529 763.55054657 -0.05705275 768.77944803 -0.0574303 C769.81618368 -0.05750511 770.85291933 -0.05757991 771.92107121 -0.05765698 C777.16366142 -0.05803545 782.40625163 -0.05841537 787.64884185 -0.05879792 C836.57675667 -0.06236617 885.50467152 -0.06523047 934.43258643 -0.06739062 C936.03172174 -0.06746148 936.03172174 -0.06746148 937.66316281 -0.06753377 C1005.60316529 -0.07052881 1073.54316737 -0.07040323 1141.48316987 -0.06796985 C1144.82424793 -0.06785026 1148.16532599 -0.06773188 1151.50640405 -0.06761376 C1176.10025221 -0.06674232 1200.69410036 -0.06581172 1225.28794852 -0.06486312 C1227.53091288 -0.06477674 1229.77387725 -0.06469036 1232.01684161 -0.064604 C1234.26072576 -0.06451757 1236.50460991 -0.06443112 1238.74849406 -0.06434468 C1239.85954256 -0.06430189 1240.97059106 -0.06425909 1242.1153077 -0.06421501 C1247.72919441 -0.06399862 1253.34308112 -0.06378118 1258.95696783 -0.06356178 C1364.99670961 -0.05942288 1471.03644941 -0.05834655 1577.07619071 -0.07072181 C1578.19267327 -0.07085209 1579.30915583 -0.07098237 1580.4594712 -0.0711166 C1614.2211007 -0.0750685 1647.98273015 -0.07942806 1681.74435958 -0.08388776 C1718.66095063 -0.08876377 1755.57754167 -0.09359765 1792.49413276 -0.09816951 C1793.59622815 -0.09830628 1794.69832355 -0.09844305 1795.83381578 -0.09858396 C1864.8470199 -0.10713752 1933.86022345 -0.11204223 2002.87342811 -0.11287707 C2003.93919319 -0.11289034 2005.00495827 -0.11290361 2006.10301926 -0.11291729 C2052.90704946 -0.11349259 2099.71107962 -0.11320788 2146.51510981 -0.11199857 C2164.30199937 -0.11153936 2182.08888892 -0.11114712 2199.87577848 -0.11078781 C2204.03965983 -0.11070355 2208.20354117 -0.11061428 2212.36742252 -0.11052099 C2260.12918336 -0.10946522 2307.89094273 -0.11054735 2355.65270305 -0.11819595 C2356.68295171 -0.11836059 2357.71320037 -0.11852524 2358.77466869 -0.11869487 C2375.34782611 -0.12135321 2391.9209835 -0.1241723 2408.49414089 -0.12699889 C2455.53486961 -0.13501183 2502.57559619 -0.14136359 2549.61632562 -0.13693005 C2550.57057561 -0.13684065 2551.52482559 -0.13675125 2552.50799225 -0.13665914 C2573.32531565 -0.13467574 2594.14263884 -0.13184045 2614.959962 -0.12816862 C2623.26213835 -0.12671638 2631.56431471 -0.12537216 2639.86649108 -0.12406081 C2641.22493904 -0.12384171 2641.22493904 -0.12384171 2642.61083039 -0.12361818 C2671.34565251 -0.11903434 2700.08046325 -0.12365894 2728.81528375 -0.1335954 C2757.10536594 -0.14333851 2785.39543163 -0.14398058 2813.68551321 -0.1313401 C2817.55956952 -0.1296103 2821.43362586 -0.127985 2825.30768225 -0.12642225 C2826.0661095 -0.12611224 2826.82453675 -0.12580224 2827.60594664 -0.12548284 C2839.56666874 -0.12086668 2851.52736414 -0.12625612 2863.48808235 -0.13592421 C2875.18909371 -0.1451775 2886.89005472 -0.14353986 2898.59106423 -0.13099352 C2904.82080608 -0.12461976 2911.05044955 -0.12295417 2917.28018606 -0.13456073 C2922.93491108 -0.14500856 2928.58945382 -0.14160142 2934.24416875 -0.12725233 C2936.26973364 -0.12451181 2938.29531327 -0.12674989 2940.32086443 -0.13469746 C2971.84898319 -0.24996351 2997.55755721 8.83374115 3020.18049979 30.94325525 C3043.02199515 54.90067099 3047.74797051 83.93007404 3047.68056083 115.5565365 C3047.68286772 117.91802836 3047.68604577 120.2795195 3047.69001532 122.64100915 C3047.69746987 128.42817224 3047.6956889 134.21528006 3047.68991379 140.00244385 C3047.68351179 146.94092275 3047.68877553 153.87938087 3047.69433761 160.81785876 C3047.7048491 174.4107199 3047.70396429 188.0035622 3047.69817979 201.59642512 C3047.69314262 213.49198509 3047.69183809 225.38753817 3047.69422507 237.283099 C3047.69437784 238.07309525 3047.69453061 238.86309151 3047.69468801 239.67702705 C3047.69531072 242.88412514 3047.69594752 246.09122322 3047.69660754 249.29832131 C3047.70272135 279.36463084 3047.69718526 309.43092839 3047.68641375 339.49723607 C3047.67692301 366.19148846 3047.67777228 392.88572177 3047.68733573 419.579974 C3047.69805207 449.59236711 3047.70228771 479.60474964 3047.6961112 509.61714441 C3047.6954698 512.81829593 3047.69484411 516.01944746 3047.69422507 519.220599 C3047.69406692 520.00876614 3047.69390876 520.79693329 3047.69374582 521.60898429 C3047.69147379 533.49515043 3047.69412597 545.38130891 3047.69918418 557.267474 C3047.70490877 570.78670249 3047.70346008 584.30590925 3047.69262269 597.82513505 C3047.68727668 604.72098597 3047.6850395 611.61680163 3047.691921 618.51265222 C3047.6978938 624.82896346 3047.69458327 631.14520024 3047.68396589 637.46150476 C3047.68173753 639.7426116 3047.68285545 642.02372477 3047.68771747 644.30482751 C3047.75310828 677.54170364 3040.35466571 704.83963737 3016.92659354 729.126849 C2999.93895435 745.49933691 2976.61115798 756.44643555 2952.83401973 756.37841083 C2951.97590304 756.37994476 2951.11778636 756.38147868 2950.23366613 756.38305908 C2947.34277913 756.38699775 2944.45194392 756.38379087 2941.56105655 756.38065016 C2939.46163992 756.38201823 2937.36222353 756.38382419 2935.26280761 756.38602898 C2929.45170981 756.39084575 2923.64062747 756.38938881 2917.82952879 756.38697128 C2911.49978063 756.38543436 2905.17003597 756.38968125 2898.84028897 756.39319804 C2887.68975204 756.39858308 2876.53921944 756.40024662 2865.38868131 756.3994473 C2853.35618656 756.39860329 2841.32369495 756.39993583 2829.29120079 756.40389701 C2828.14812811 756.40427111 2828.14812811 756.40427111 2826.98196306 756.40465277 C2823.87494819 756.40567692 2820.76793334 756.40671676 2817.66091849 756.40777639 C2788.43212789 756.41774359 2759.20333833 756.42275052 2729.97454619 756.42488748 C2701.13323876 756.42700705 2672.29193284 756.4312635 2643.45062613 756.4381302 C2641.61311362 756.43856529 2639.7756011 756.43900025 2637.93808858 756.43943509 C2630.52945617 756.44119174 2623.12082375 756.44296204 2615.71219134 756.44474811 C2526.88128416 756.46613375 2438.05037668 756.47702472 2349.21946751 756.48591035 C2319.03555888 756.48893327 2288.85165032 756.49239383 2258.66774178 756.49619156 C2257.12678838 756.49638523 2257.12678838 756.49638523 2255.55470462 756.49658282 C2246.20370723 756.49775829 2236.85270984 756.49893746 2227.50171246 756.50012008 C2121.8444971 756.51347487 2016.18728151 756.52586927 1800.92244797 756.54087912 C1790.86935779 756.54140358 1780.81626762 756.54194089 1770.76317745 756.54247758 C1767.40585546 756.54265679 1764.04853347 756.54283575 1760.69121148 756.54301467 C1739.36277699 756.54415176 1718.0343425 756.54529782 1696.70590802 756.54646287 C1691.07872182 756.54677018 1685.45153563 756.54707611 1679.82434943 756.54737877 C1573.54181961 756.5530988 1467.25929219 756.56234262 1360.97676444 756.58479577 C1359.29842793 756.58515011 1359.29842793 756.58515011 1357.58618562 756.58551162 C1321.5021027 756.59313952 1285.41801986 756.60118834 1249.33393704 756.60929688 C1214.58894717 756.61710438 1179.84395728 756.62482777 1145.09896731 756.63218671 C1143.99452936 756.6324208 1142.89009141 756.63265489 1141.75218564 756.63289607 C1072.5906452 756.6475314 1003.42910541 756.65733405 934.26756358 756.66206151 C933.19947582 756.66213511 932.13138805 756.6622087 931.03093399 756.66228453 C884.1243525 756.66551041 837.21777101 756.66767889 790.31118941 756.66866753 C771.4408185 756.66906835 752.5704476 756.66960174 733.70007669 756.67019896 C730.57123715 756.67029643 727.4423976 756.67038881 724.31355806 756.67048033 C676.44605105 756.67190929 628.57854711 756.67648215 580.71104193 756.69035631 C579.67851463 756.69065538 578.64598733 756.69095446 577.58217133 756.69126259 C560.97227317 756.69609123 544.36237508 756.70117312 527.752477 756.70628859 C480.60511875 756.72080384 433.4577641 756.73332588 386.31040323 756.73157042 C385.35392993 756.73153566 384.39745664 756.73150089 383.41199931 756.73146508 C362.54579077 756.73066534 341.67958249 756.72875711 320.81337416 756.72576254 C312.49157367 756.72458534 304.16977315 756.72355567 295.84797263 756.7225731 C294.48631307 756.72240642 294.48631307 756.72240642 293.09714522 756.72223636 C264.2968527 756.71878113 235.49658157 756.72763334 206.69629374 756.74359302 C178.34029129 756.75925567 149.98431693 756.76280118 121.62831274 756.74866894 C117.74471995 756.74673528 113.86112711 756.74494156 109.97753421 756.74323186 C108.83709732 756.74272174 108.83709732 756.74272174 107.67362131 756.74220133 C95.68614924 756.73720403 83.69872594 756.74555729 71.71126266 756.75963096 C59.98241315 756.77312839 48.25365155 756.77209205 36.52480245 756.75652294 C30.28086519 756.74864322 24.03710316 756.74703012 17.79317778 756.76314197 C12.12440877 756.7776534 6.45596122 756.77365121 0.78720677 756.75509032 C-1.24229772 756.75164077 -3.27182776 756.75481712 -5.30130638 756.7656307 C-34.99411891 756.91324047 -59.98268777 747.15320056 -81.63590646 726.564349 C-105.04086678 702.53574553 -109.89258657 673.09225034 -109.83410287 640.974078 C-109.83712667 638.61543666 -109.8410173 636.2567963 -109.84569544 633.89815766 C-109.85488178 628.11791668 -109.85483587 622.33772824 -109.85078382 616.5574826 C-109.84644146 609.6270914 -109.8537303 602.69672424 -109.8612751 595.76633752 C-109.87648614 581.39996258 -109.87822314 567.03360532 -109.87575207 552.66722402 C-109.87391679 541.57026488 -109.87568394 530.47331151 -109.87997651 519.37635309 C-109.88057892 517.77997656 -109.88118012 516.18360004 -109.88178011 514.58722351 C-109.8826874 512.18139725 -109.88359607 509.77557098 -109.88451247 507.36974472 C-109.8929377 485.01183346 -109.89728067 462.65392437 -109.89310575 440.29601175 C-109.89294937 439.45379383 -109.89279299 438.61157592 -109.89263188 437.74383625 C-109.89182614 433.47550496 -109.89098037 429.20717367 -109.89011858 424.93884239 C-109.88994749 424.09119521 -109.8897764 423.24354803 -109.88960013 422.37021457 C-109.88925347 420.65606753 -109.88890494 418.94192048 -109.88855454 417.22777344 C-109.88319829 390.56032981 -109.89112679 363.89291926 -109.9095881 337.22548181 C-109.93032371 307.23795276 -109.94102783 277.25044419 -109.93701261 247.26290756 C-109.93661729 244.0628077 -109.93625574 240.86270784 -109.93591523 237.66260797 C-109.9358245 236.87471051 -109.93573377 236.08681306 -109.93564029 235.27503992 C-109.93447639 223.40306604 -109.94110675 211.53111292 -109.95172715 199.65914422 C-109.96379985 186.15027067 -109.96531432 172.6414427 -109.95293698 159.13256845 C-109.94690743 152.24430576 -109.94553813 145.35612417 -109.95793939 138.46786767 C-109.96881625 132.15378449 -109.96567319 125.83986442 -109.9516777 119.52578881 C-109.94903576 117.24999368 -109.95138135 114.9741857 -109.95941357 112.69840321 C-110.05220563 84.42995102 -105.56611653 58.44333129 -86.57340646 36.251849 C-85.93016427 35.46423181 -85.28692208 34.67661462 -84.62418771 33.86513025 C-62.66135262 8.00500834 -32.74717989 -0.08188237 0 0 Z M-49.57340646 15.251849 C-50.50539865 15.70430993 -51.43739083 16.15677087 -52.39762521 16.62294275 C-75.42865382 28.47573153 -91.70959327 49.2341033 -99.76090646 73.564349 C-103.91002661 88.1173315 -103.86155221 102.4261053 -103.83410287 117.42918664 C-103.8371267 119.77687897 -103.84101734 122.12457032 -103.84569544 124.47225994 C-103.85488134 130.22535348 -103.85483603 135.97839423 -103.85078382 141.73149246 C-103.84644132 148.62929522 -103.85373038 155.52707383 -103.8612751 162.42487208 C-103.87648534 176.72304076 -103.87822327 191.02119167 -103.87575207 205.31936674 C-103.87391688 216.36247198 -103.87568376 227.40557142 -103.87997651 238.44867593 C-103.88057892 240.03722555 -103.88118012 241.62577516 -103.88178011 243.21432478 C-103.8826874 245.60833172 -103.88359607 248.00233866 -103.88451247 250.39634559 C-103.89293742 272.6435161 -103.89728081 294.89068443 -103.89310575 317.1378563 C-103.89294937 317.97587607 -103.89279299 318.81389584 -103.89263188 319.67731015 C-103.89182614 323.92438772 -103.89098037 328.17146529 -103.89011858 332.41854285 C-103.88994749 333.2619736 -103.8897764 334.10540436 -103.88960013 334.97439362 C-103.88925347 336.68001326 -103.88890494 338.38563291 -103.88855454 340.09125255 C-103.88319727 366.63112597 -103.89112982 393.17096615 -103.9095881 419.71083337 C-103.93031868 449.552582 -103.94102887 479.39431005 -103.93701261 509.23606628 C-103.93661729 512.41984103 -103.93625574 515.60361578 -103.93591523 518.78739053 C-103.9358245 519.57127338 -103.93573377 520.35515623 -103.93564029 521.16279311 C-103.93447594 532.9790713 -103.94111017 544.79532866 -103.95172715 556.61160165 C-103.96379342 570.05429044 -103.96532161 583.49693343 -103.95293698 596.93962292 C-103.94690308 603.79523369 -103.94555053 610.65076293 -103.95793939 617.5063675 C-103.96880201 623.78827238 -103.96569006 630.07001315 -103.9516777 636.35191037 C-103.94903187 638.61824871 -103.95139366 640.88459993 -103.95941357 643.15092562 C-104.04744414 669.89423065 -99.61883843 695.46289311 -81.57340646 716.251849 C-80.59307443 717.44680993 -80.59307443 717.44680993 -79.59293771 718.6659115 C-65.06860517 735.756474 -43.84826546 747.22228591 -21.57340646 750.251849 C-18.70416948 750.34282737 -15.86002742 750.38662913 -12.99135537 750.37841083 C-11.70589091 750.38071172 -11.70589091 750.38071172 -10.39445748 750.38305908 C-7.50746034 750.3869977 -4.62051508 750.38379089 -1.73351759 750.38065016 C0.36309328 750.38201823 2.4597039 750.38382419 4.55631405 750.38602898 C10.35960821 750.39084572 16.16288688 750.38938882 21.96618191 750.38697128 C28.28744399 750.38543435 34.60870258 750.38968126 40.9299635 750.39319804 C52.06553887 750.39858306 63.20110991 750.40024662 74.33668647 750.3994473 C86.35303059 750.39860329 98.36937156 750.39993584 110.38571509 750.40389701 C111.14674195 750.40414641 111.90776882 750.40439581 112.6918571 750.40465277 C115.79470697 750.40567692 118.89755684 750.40671676 122.0004067 750.40777639 C151.18998404 750.41774357 180.37956036 750.42275052 209.56913924 750.42488748 C238.3717453 750.42700705 267.17434984 750.4312635 295.97695518 750.4381302 C297.81200329 750.43856529 299.6470514 750.43900025 301.48209951 750.43943509 C308.88079599 750.44119174 316.27949246 750.44296204 323.67818894 750.44474811 C412.389922 750.46613374 501.10165536 750.47702472 589.81339042 750.48591035 C619.95681032 750.48893327 650.10023015 750.49239383 680.24364996 750.49619156 C681.26957452 750.49632068 682.29549907 750.49644979 683.35251225 750.49658282 C692.69096957 750.49775829 702.0294269 750.49893746 711.36788422 750.50012008 C816.8834189 750.51347487 922.39895382 750.52586927 1137.37511223 750.54087912 C1147.41471957 750.54140358 1157.4543269 750.54194089 1167.49393424 750.54247758 C1170.84675346 750.54265679 1174.19957269 750.54283575 1177.55239191 750.54301467 C1198.85222066 750.54415176 1220.1520494 750.54529782 1241.45187814 750.54646287 C1247.07151707 750.54677018 1252.691156 750.54707611 1258.31079493 750.54737877 C1364.450755 750.5530988 1470.59071268 750.56234261 1576.73067069 750.58479577 C1578.40675539 750.58515011 1578.40675539 750.58515011 1580.11670038 750.58551162 C1616.15236897 750.59313952 1652.18803747 750.60118834 1688.22370595 750.60929688 C1722.92207909 750.61710438 1757.62045225 750.62482777 1792.31882548 750.63218671 C1793.42178169 750.6324208 1794.5247379 750.63265489 1795.66111702 750.63289607 C1864.72989555 750.64753141 1933.79867342 750.65733405 2002.86745334 750.66206151 C2003.93410895 750.66213511 2005.00076456 750.6622087 2006.09974307 750.66228453 C2052.94343516 750.66551041 2099.78712724 750.66767889 2146.63081942 750.66866753 C2165.47589162 750.66906835 2184.32096382 750.66960174 2203.16603602 750.67019896 C2206.29068076 750.67029643 2209.4153255 750.67038881 2212.53997024 750.67048033 C2260.34326897 750.67190929 2308.14656463 750.67648214 2355.94986153 750.69035631 C2356.98100284 750.69065538 2358.01214416 750.69095446 2359.07453218 750.69126259 C2375.66213314 750.69609123 2392.24973402 750.70117312 2408.83733489 750.70628859 C2455.92143304 750.72080385 2503.00552757 750.73332588 2550.08962834 750.73157042 C2551.04481943 750.73153566 2552.00001052 750.73150089 2552.98414679 750.73146508 C2573.8223893 750.73066534 2594.66063155 750.72875711 2615.49887386 750.72576254 C2623.80952263 750.72458534 2632.12017143 750.72355567 2640.43082023 750.7225731 C2641.33737677 750.72246198 2642.24393331 750.72235086 2643.17796126 750.72223636 C2671.93959778 750.71878114 2700.70121289 750.72763331 2729.46284471 750.74359302 C2757.78081735 750.75925571 2786.09876186 750.76280114 2814.41673624 750.74866894 C2818.29513213 750.74673528 2822.17352808 750.74494156 2826.05192407 750.74323186 C2826.81119785 750.74289178 2827.57047162 750.74255171 2828.3527537 750.74220133 C2840.32411948 750.73720406 2852.29543642 750.74555724 2864.26679341 750.75963096 C2875.97992233 750.77312848 2887.69296321 750.77209194 2899.40609172 750.75652294 C2905.64164438 750.7486433 2911.87702157 750.74702992 2918.11256233 750.76314197 C2923.77374593 750.77765365 2929.43460765 750.77365091 2935.09577668 750.75509032 C2937.12253987 750.75164083 2939.14932865 750.7548169 2941.17606592 750.7656307 C2969.84281686 750.90833507 2993.82611347 742.27595745 3014.64534354 722.12294275 C3037.41284626 698.61997295 3041.74804643 670.5344395 3041.68056083 639.09901696 C3041.68286776 636.7540243 3041.68604584 634.40903235 3041.69001532 632.06404191 C3041.69746939 626.31768863 3041.69568918 620.57139101 3041.68991379 614.82503702 C3041.68351142 607.93540268 3041.6887757 601.04578926 3041.69433761 594.15615594 C3041.70484877 580.65900766 3041.70396442 567.16187836 3041.69817979 553.66472828 C3041.69314251 541.85292583 3041.69183814 530.04113033 3041.69422507 518.22932702 C3041.69437784 517.44487615 3041.69453061 516.66042528 3041.69468801 515.85220318 C3041.69531072 512.66761287 3041.69594753 509.48302258 3041.69660754 506.29843228 C3041.70272127 476.44347208 3041.69718539 446.58852394 3041.68641375 416.7335656 C3041.67692301 390.22728381 3041.67777229 363.72102124 3041.68733573 337.21473962 C3041.6980522 307.41329734 3041.70228764 277.61186571 3041.6961112 247.81042176 C3041.6954698 244.63173817 3041.69484411 241.45305457 3041.69422507 238.27437097 C3041.69406692 237.49173642 3041.69390876 236.70910188 3041.69374582 235.90275113 C3041.69147385 224.10031126 3041.69412587 212.29787911 3041.69918418 200.4954403 C3041.70490892 187.07136603 3041.70345976 173.64731366 3041.69262269 160.2232421 C3041.68727688 153.3759975 3041.68503915 146.5287884 3041.691921 139.68154413 C3041.69789421 133.40964284 3041.69458262 127.13781655 3041.68396589 120.86592203 C3041.6817377 118.60096583 3041.68285507 116.33600326 3041.68771747 114.07105118 C3041.71651118 99.54042204 3041.6767072 85.2784886 3036.86409354 71.376849 C3036.47773734 70.25222253 3036.47773734 70.25222253 3036.08357596 69.10487634 C3031.11898627 55.32803129 3023.72343818 44.5332792 3013.42659354 34.251849 C3012.77174979 33.52610681 3012.11690604 32.80036462 3011.44221854 32.05263025 C2997.83527028 17.25362028 2977.00427891 8.96411651 2957.42659354 6.251849 C2954.56100978 6.16088292 2951.72055428 6.11706758 2948.85553785 6.12528716 C2947.99975309 6.12375323 2947.14396834 6.12221931 2946.26225071 6.12063891 C2943.37931776 6.11670034 2940.49643677 6.11990708 2937.61350346 6.12304783 C2935.51982384 6.12167976 2933.42614447 6.1198738 2931.33246557 6.11766901 C2925.5373231 6.11285231 2919.74219612 6.11430916 2913.94705276 6.11672671 C2907.63465341 6.11826365 2901.32225757 6.11401673 2895.00985938 6.11049995 C2883.88990477 6.10511494 2872.7699545 6.10345137 2861.64999869 6.10425069 C2849.65050804 6.10509471 2837.65102054 6.10376215 2825.65153047 6.09980098 C2824.51158872 6.09942688 2824.51158872 6.09942688 2823.34861783 6.09904522 C2820.25011241 6.09802107 2817.151607 6.09698123 2814.05310159 6.0959216 C2784.90440382 6.08595442 2755.75570707 6.08094747 2726.60700774 6.07881051 C2697.84471477 6.07669094 2669.08242331 6.07243448 2640.32013106 6.06556779 C2638.48764886 6.0651327 2636.65516665 6.06469774 2634.82268444 6.0642629 C2627.43433087 6.06250625 2620.0459773 6.06073595 2612.65762373 6.05894988 C2524.06957947 6.03756418 2435.48153491 6.02667323 2346.89348865 6.01778764 C2316.79181038 6.01476471 2286.69013219 6.01130415 2256.58845401 6.00750643 C2255.5639458 6.00737731 2254.53943759 6.0072482 2253.48388367 6.00711517 C2244.15831036 6.0059397 2234.83273704 6.00476053 2225.50716373 6.00357791 C2120.13673266 5.99022308 2014.76630135 5.9778287 1800.0853261 5.96281888 C1790.05948631 5.96229441 1780.03364652 5.9617571 1770.00780673 5.96122041 C1766.6595864 5.96104121 1763.31136608 5.96086224 1759.96314575 5.96068332 C1738.69254471 5.95954624 1717.42194367 5.95840017 1696.15134263 5.95723512 C1690.53941663 5.95692781 1684.92749064 5.95662188 1679.31556464 5.95631922 C1573.3226859 5.95059927 1467.32980956 5.94135581 1361.3369329 5.91890222 C1359.66320267 5.91854788 1359.66320267 5.91854788 1357.95565971 5.91818638 C1321.97066613 5.91055849 1285.98567265 5.90250966 1250.00067917 5.89440111 C1215.35108191 5.8865936 1180.70148463 5.87887021 1146.05188727 5.87151128 C1144.399775 5.87116015 1144.399775 5.87116015 1142.71428672 5.87080192 C1073.74120596 5.85616632 1004.76812586 5.84636386 935.79504371 5.84163648 C934.72984703 5.84156288 933.66465036 5.84148929 932.56717499 5.84141346 C885.78728463 5.83818756 839.00739427 5.8360191 792.22750381 5.83503046 C773.40801944 5.83462964 754.58853508 5.83409625 735.76905072 5.83349903 C732.64865187 5.83340157 729.52825302 5.83330918 726.40785417 5.83321766 C678.67090218 5.83178874 630.93395327 5.82721641 583.19700313 5.81334168 C582.16733449 5.81304261 581.13766585 5.81274354 580.07679513 5.8124354 C563.51294125 5.80760677 546.94908744 5.80252489 530.38523364 5.7974094 C483.36710444 5.78289367 436.34897885 5.77037221 389.33084702 5.77212757 C388.37694211 5.77216233 387.4230372 5.7721971 386.44022608 5.77223291 C365.6297553 5.77303266 344.81928477 5.77494092 324.00881418 5.77793545 C315.70916572 5.77911265 307.40951725 5.78014232 299.10986876 5.78112489 C298.20451349 5.78123601 297.29915822 5.78134714 296.36636793 5.78146163 C267.64556982 5.78491653 238.92479315 5.77606594 210.20399974 5.76010497 C181.92488405 5.74444031 153.64579654 5.74089887 125.3666791 5.75502905 C121.49308302 5.75696269 117.61948689 5.75875642 113.74589071 5.76046614 C112.60839522 5.76097625 112.60839522 5.76097625 111.44792003 5.76149666 C99.49428839 5.76649278 87.54070567 5.75814324 75.58708284 5.74406703 C63.88958883 5.73056522 52.19218296 5.73161099 40.49468936 5.74717505 C34.26816602 5.75505143 28.04181837 5.75667728 21.81530697 5.74055602 C16.16112254 5.72603304 10.50726021 5.7300604 4.85309031 5.74860767 C2.82997745 5.75205412 0.80683892 5.74889108 -1.21624792 5.7380673 C-18.27105569 5.65294374 -34.05799819 7.63842262 -49.57340646 15.251849 Z " fill="#001028" transform="translate(443.573406457901,427.7481510043144)"/>
<path d="M0 0 C24.78089756 21.40236983 39.76913905 48.07835183 43.2890625 80.8828125 C43.63966272 86.60710323 43.62893063 92.33753401 43.6015625 98.0703125 C43.60007202 98.84216888 43.59858154 99.61402527 43.5970459 100.40927124 C43.55739793 111.82625792 43.05257136 122.75730702 40.2890625 133.8828125 C40.010625 135.08679688 39.7321875 136.29078125 39.4453125 137.53125 C32.11477301 166.15827058 13.27181556 191.28466136 -11.7109375 206.8828125 C-37.65171903 221.78079282 -69.62479547 226.4768248 -98.7109375 218.8828125 C-129.46612036 210.03880364 -152.94905298 189.34183639 -168.53515625 161.640625 C-185.68305932 128.3814679 -186.92899308 88.17986015 -175.7109375 52.8828125 C-174.27709938 48.74599577 -172.6203836 44.82137026 -170.7109375 40.8828125 C-170.42879395 40.2954834 -170.14665039 39.7081543 -169.85595703 39.10302734 C-165.45983535 30.06642572 -160.42707422 22.42109699 -153.7109375 14.8828125 C-153.02515625 14.05394531 -152.339375 13.22507812 -151.6328125 12.37109375 C-115.32819842 -30.45490471 -43.11806818 -35.76294654 0 0 Z " fill="#DEEEFE" transform="translate(1702.7109375,755.1171875)"/>
<path d="M0 0 C2.54325713 2.24725783 5.02446617 4.5449728 7.48828125 6.87890625 C8.27460937 7.61238281 9.0609375 8.34585938 9.87109375 9.1015625 C15.21689544 14.23896853 19.50455091 19.63464055 23.48828125 25.87890625 C24.06320312 26.74773438 24.638125 27.6165625 25.23046875 28.51171875 C36.33744752 46.23352043 41.82633937 68.07090704 42.48828125 88.87890625 C42.52824219 89.92433594 42.56820313 90.96976563 42.609375 92.046875 C43.29954683 127.32683484 32.62662063 158.91279403 8.48828125 184.87890625 C-10.28276372 204.15349639 -35.98621724 216.51233923 -63.05859375 217.1796875 C-65.10244562 217.19729891 -67.14553673 217.20109398 -69.18945312 217.19458008 C-71.24533793 217.19143134 -73.29976161 217.2149311 -75.35546875 217.24023438 C-105.04514917 217.38244418 -130.52938963 205.2387751 -151.76171875 185.06640625 C-176.37997576 159.47956208 -185.13890423 125.67721062 -184.71875 90.9609375 C-184.02155283 63.94989394 -175.80026009 36.28172983 -157.51171875 15.87890625 C-156.79113281 15.03972656 -156.07054687 14.20054687 -155.328125 13.3359375 C-116.97260774 -30.60339857 -45.29755926 -38.25283776 0 0 Z " fill="#DEEEFE" transform="translate(1242.51171875,758.12109375)"/>
<path d="M0 0 C20.94521228 18.11144826 29.01616693 45.14108114 31.1875 71.8125 C31.53035066 78.20457597 31.52837279 84.60057651 31.5 91 C31.49817719 91.85622955 31.49635437 92.71245911 31.49447632 93.59463501 C31.4481225 106.54516779 30.94096451 119.11566807 28.1875 131.8125 C28.02121094 132.62025879 27.85492187 133.42801758 27.68359375 134.26025391 C21.77199787 162.38959763 9.41816614 188.84241947 -7.8125 211.8125 C-8.25948242 212.41352539 -8.70646484 213.01455078 -9.16699219 213.63378906 C-15.83790146 222.54274277 -23.09994524 230.79670855 -30.8125 238.8125 C-31.36309082 239.39032227 -31.91368164 239.96814453 -32.48095703 240.56347656 C-40.68876926 249.14383865 -49.23470763 256.79638309 -58.8125 263.8125 C-59.81651855 264.55113281 -59.81651855 264.55113281 -60.84082031 265.3046875 C-68.41694156 270.84527548 -76.11898111 276.15988791 -84.125 281.0625 C-84.74109131 281.4455127 -85.35718262 281.82852539 -85.99194336 282.22314453 C-89.31028418 284.20403581 -90.83071063 284.8125 -94.8125 284.8125 C-96.16186523 283.53759766 -96.16186523 283.53759766 -97.37109375 281.7265625 C-97.83298096 281.05173828 -98.29486816 280.37691406 -98.77075195 279.68164062 C-99.25890381 278.94107422 -99.74705566 278.20050781 -100.25 277.4375 C-101.31394077 275.87681043 -102.37908671 274.31694189 -103.4453125 272.7578125 C-103.99606445 271.94473633 -104.54681641 271.13166016 -105.11425781 270.29394531 C-107.88179503 266.25006258 -110.75038327 262.28065736 -113.625 258.3125 C-114.44315186 257.17989746 -114.44315186 257.17989746 -115.27783203 256.02441406 C-119.01440291 250.8679234 -122.82139631 245.77598168 -126.8125 240.8125 C-124.22261109 237.89103362 -121.22321777 236.15990465 -117.875 234.1875 C-86.23526005 215.09661259 -60.16533931 187.36179482 -48.8125 151.8125 C-48.58933105 151.12381836 -48.36616211 150.43513672 -48.13623047 149.72558594 C-45.08081629 140.37506793 -45.08081629 140.37506793 -42.8125 130.8125 C-43.47169434 130.76134033 -44.13088867 130.71018066 -44.81005859 130.6574707 C-51.7493349 130.07828221 -58.57441537 129.16984397 -65.4375 128 C-66.40945312 127.84724609 -67.38140625 127.69449219 -68.3828125 127.53710938 C-74.70647771 126.4619163 -80.10111796 124.72434225 -85.8125 121.8125 C-86.70839844 121.36648438 -87.60429687 120.92046875 -88.52734375 120.4609375 C-104.45899095 111.33313963 -113.59131815 96.05822186 -118.8125 78.8125 C-124.16635054 57.5698027 -123.01730929 36.93026637 -112 17.6875 C-102.59050934 2.74724002 -90.22717662 -8.20964637 -73.09765625 -13.2890625 C-48.03623847 -18.73387814 -20.7229397 -15.79981038 0 0 Z " fill="#001028" transform="translate(2834.8125,805.1875)"/>
<path d="M0 0 C18.04693974 -0.617678 34.79190164 5.29964312 48.4609375 17.1171875 C62.37863816 30.25609986 71.13260629 46.93465495 71.828125 66.33984375 C72.15880939 85.97370637 69.37558624 105.09214858 55.625 120.16015625 C54.90699219 120.98128906 54.18898438 121.80242187 53.44921875 122.6484375 C43.81749258 133.03682955 32.35351346 138.81772588 18.625 142.16015625 C17.87992188 142.3509375 17.13484375 142.54171875 16.3671875 142.73828125 C-2.60279028 145.65673937 -22.22439148 142.40008819 -38.0546875 131.27734375 C-40.5802275 129.31985834 -42.98623611 127.28170249 -45.375 125.16015625 C-46.42300781 124.27070313 -46.42300781 124.27070313 -47.4921875 123.36328125 C-58.85747901 113.015117 -65.68254629 96.81153764 -66.51586914 81.58642578 C-67.29460991 57.97438122 -63.62089587 39.18143874 -47.33203125 21.17578125 C-34.64231118 7.84124977 -18.12651701 1.22234736 0 0 Z " fill="#FAC638" transform="translate(644.375,267.83984375)"/>
<path d="M0 0 C13.99698491 11.74711394 23.52740855 26.89619049 25.74609375 45.3046875 C27.00960328 67.63998923 24.47716433 89.17297575 9.43359375 106.8046875 C-4.80218675 121.30814935 -22.40105815 128.48398148 -42.56640625 128.7421875 C-62.90570396 128.60980798 -79.74179999 121.45866549 -94.4375 107.18359375 C-108.81237375 91.93916241 -112.91280405 72.55235358 -112.50390625 52.25390625 C-111.72698534 31.94130899 -102.6643176 15.78495653 -88.22265625 1.87890625 C-63.3860871 -19.65701358 -25.6441184 -20.34188846 0 0 Z " fill="#F34F57" transform="translate(449.25390625,282.6953125)"/>
<path d="M0 0 C13.80331435 11.03018799 22.41102535 28.76604396 24.73046875 46.0703125 C24.8540315 47.56883942 24.95784909 49.0691112 25.04296875 50.5703125 C25.12224609 51.72660156 25.12224609 51.72660156 25.203125 52.90625 C25.88951576 72.30424961 20.50837236 90.8906718 8.0859375 105.94140625 C-3.99234405 118.87121786 -20.60006442 127.04786199 -38.35546875 127.80859375 C-59.25055138 128.27727243 -77.10173392 123.48803121 -93.19921875 109.30078125 C-106.57759236 96.05505441 -112.9643393 79.2143081 -113.95703125 60.5703125 C-113.99828125 59.86777344 -114.03953125 59.16523438 -114.08203125 58.44140625 C-114.6669554 38.59054283 -107.94243285 20.36544885 -94.42529297 5.87475586 C-68.32225208 -20.72536012 -29.35872144 -21.44768872 0 0 Z " fill="#3AEA49" transform="translate(931.95703125,283.4296875)"/>
<path d="M0 0 C13.5202071 10.38563394 22.6569492 25.24121556 25.859375 41.8984375 C26.04371094 42.81109375 26.22804688 43.72375 26.41796875 44.6640625 C29.25899409 65.4814871 25.71217782 86.93146207 12.859375 103.8984375 C12.37082031 104.56359375 11.88226562 105.22875 11.37890625 105.9140625 C1.10555113 118.80014744 -15.04019759 126.43600222 -31.09326172 128.67578125 C-52.75708203 131.03177983 -71.52662968 125.68509476 -88.765625 112.2109375 C-101.47090368 100.69392229 -109.28301439 84.19960496 -110.3046875 67.16259766 C-111.15190271 45.51271907 -108.71627307 26.76816559 -93.578125 10.3359375 C-91.7990728 8.48337323 -89.98258986 6.69031872 -88.140625 4.8984375 C-87.53476563 4.29515625 -86.92890625 3.691875 -86.3046875 3.0703125 C-62.07649746 -19.38508315 -26.10308959 -17.46699279 0 0 Z " fill="#001028" transform="translate(2828.140625,508.1015625)"/>
<path d="M0 0 C14.5312089 12.29733685 27.22658195 28.80691048 32.24047852 47.4440918 C32.24047852 48.4340918 32.24047852 49.4240918 32.24047852 50.4440918 C-41.67952148 50.4440918 -115.59952148 50.4440918 -191.75952148 50.4440918 C-182.31791291 22.11926608 -162.09152096 -1.52576011 -135.4621582 -14.84350586 C-91.22417741 -36.02888612 -38.20064971 -31.25157227 0 0 Z " fill="#DEEEFE" transform="translate(2190.759521484375,751.555908203125)"/>
<path d="M0 0 C109.56 0 219.12 0 332 0 C332 3.96 332 7.92 332 12 C222.44 12 112.88 12 0 12 C0 8.04 0 4.08 0 0 Z " fill="#001028" transform="translate(508,1128)"/>
</svg>
