<?xml version="1.0" encoding="utf-8"?>
<!-- Generator: Adobe Illustrator 26.0.1, SVG Export Plug-In . SVG Version: 6.00 Build 0)  -->
<svg version="1.1" id="Layer_1" xmlns="http://www.w3.org/2000/svg" xmlns:xlink="http://www.w3.org/1999/xlink" x="0px" y="0px"
	 viewBox="0 0 51 47" style="enable-background:new 0 0 51 47;" xml:space="preserve">
<style type="text/css">
	.st0{fill:#001028;}
	.st1{fill:#F34F57;}
	.st2{fill:#FAC638;}
	.st3{fill:#3AEA49;}
	.st4{fill:#DFEFFF;stroke:#001028;stroke-width:0.2406;stroke-miterlimit:10;}
	.st5{fill:#DFEFFF;stroke:#001028;stroke-width:0.1385;stroke-miterlimit:10;}
</style>
<g>
	<path class="st4" d="M35.7,39.7H9.5c-1,0-1.9-0.9-1.9-1.9V11.6c0-1,0.9-1.9,1.9-1.9h26.2c1,0,1.9,0.9,1.9,1.9v26.2
		C37.6,38.9,36.7,39.7,35.7,39.7z"/>
	<g>
		<path class="st0" d="M33.4,17.5l-3,2.8c-2-2.1-4.3-3.2-6.9-3.2c-2.1,0-4,0.7-5.4,2.2c-1.5,1.5-2.2,3.3-2.2,5.4c0,1.5,0.3,2.8,1,4
			c0.7,1.2,1.6,2.1,2.8,2.7c1.2,0.7,2.5,1,4,1c1.2,0,2.4-0.2,3.4-0.7c1-0.5,2.2-1.3,3.4-2.5l2.9,3c-1.7,1.6-3.2,2.7-4.7,3.4
			c-1.5,0.6-3.2,0.9-5.1,0.9c-3.5,0-6.3-1.1-8.6-3.3c-2.2-2.2-3.3-5-3.3-8.5c0-2.2,0.5-4.2,1.5-6c1-1.7,2.5-3.1,4.3-4.2
			c1.9-1.1,3.9-1.6,6.1-1.6c1.9,0,3.6,0.4,5.3,1.2C30.7,14.9,32.2,16,33.4,17.5z"/>
	</g>
	<g>
		<g>
			<path class="st1" d="M11.7,5.6c0-0.8,0.3-1.5,0.8-2c0.5-0.5,1.2-0.8,2-0.8c0.8,0,1.4,0.3,1.9,0.8c0.5,0.5,0.8,1.2,0.8,2
				c0,0.9-0.3,1.6-0.8,2.1c-0.5,0.5-1.2,0.8-1.9,0.8c-0.8,0-1.4-0.3-2-0.8C12,7.1,11.7,6.4,11.7,5.6z"/>
		</g>
		<g>
			<path class="st2" d="M19.8,5.6c0-0.8,0.3-1.5,0.8-2c0.5-0.5,1.2-0.8,2-0.8c0.8,0,1.4,0.3,1.9,0.8c0.5,0.5,0.8,1.2,0.8,2
				c0,0.9-0.3,1.6-0.8,2.1c-0.5,0.5-1.2,0.8-1.9,0.8c-0.8,0-1.4-0.3-2-0.8C20.1,7.1,19.8,6.4,19.8,5.6z"/>
		</g>
		<g>
			<path class="st3" d="M28,5.6c0-0.8,0.3-1.5,0.8-2c0.5-0.5,1.2-0.8,2-0.8c0.8,0,1.4,0.3,1.9,0.8c0.5,0.5,0.8,1.2,0.8,2
				c0,0.9-0.3,1.6-0.8,2.1c-0.5,0.5-1.2,0.8-1.9,0.8c-0.8,0-1.4-0.3-2-0.8C28.2,7.1,28,6.4,28,5.6z"/>
		</g>
	</g>
	<rect x="15.9" y="38.1" class="st0" width="13.3" height="0.5"/>
</g>
</svg>
